<svg width="28" height="36" viewBox="0 0 28 36" fill="none" xmlns="http://www.w3.org/2000/svg">
<rect y="4" width="28" height="28" rx="14" fill="#42307D"/>
<path d="M16.2393 15.674C16.1882 15.1584 15.9688 14.7578 15.581 14.4723C15.1932 14.1868 14.6669 14.044 14.0021 14.044C13.5504 14.044 13.169 14.108 12.858 14.2358C12.5469 14.3594 12.3082 14.532 12.142 14.7536C11.9801 14.9751 11.8991 15.2266 11.8991 15.5078C11.8906 15.7422 11.9396 15.9467 12.0462 16.1214C12.157 16.2962 12.3082 16.4474 12.5 16.5753C12.6918 16.6989 12.9134 16.8075 13.1648 16.9013C13.4162 16.9908 13.6847 17.0675 13.9702 17.1314L15.1463 17.4126C15.7173 17.5405 16.2415 17.7109 16.7188 17.924C17.196 18.1371 17.6094 18.3991 17.9588 18.7102C18.3082 19.0213 18.5788 19.3878 18.7706 19.8097C18.9666 20.2315 19.0668 20.7152 19.071 21.2607C19.0668 22.0618 18.8622 22.7564 18.4574 23.3445C18.0568 23.9283 17.4773 24.3821 16.7188 24.706C15.9645 25.0256 15.0547 25.1854 13.9893 25.1854C12.9325 25.1854 12.0121 25.0234 11.228 24.6996C10.4482 24.3757 9.83878 23.8963 9.39986 23.2614C8.9652 22.6222 8.73722 21.8317 8.71591 20.8899H11.3942C11.424 21.3288 11.5497 21.6953 11.7713 21.9893C11.9972 22.2791 12.2976 22.4986 12.6726 22.6477C13.0518 22.7926 13.4801 22.8651 13.9574 22.8651C14.4261 22.8651 14.8331 22.7969 15.1783 22.6605C15.5277 22.5241 15.7983 22.3345 15.9901 22.0916C16.1818 21.8487 16.2777 21.5696 16.2777 21.2543C16.2777 20.9602 16.1903 20.7131 16.0156 20.5128C15.8452 20.3125 15.5938 20.142 15.2614 20.0014C14.9332 19.8608 14.5305 19.733 14.0533 19.6179L12.6278 19.2599C11.5241 18.9915 10.6527 18.5717 10.0135 18.0007C9.37429 17.4297 9.05682 16.6605 9.06108 15.6932C9.05682 14.9006 9.26776 14.2081 9.69389 13.6158C10.1243 13.0234 10.7145 12.5611 11.4645 12.2287C12.2145 11.8963 13.0668 11.7301 14.0213 11.7301C14.9929 11.7301 15.8409 11.8963 16.5653 12.2287C17.294 12.5611 17.8608 13.0234 18.2656 13.6158C18.6705 14.2081 18.8793 14.8942 18.892 15.674H16.2393Z" fill="white"/>
</svg>
