<svg width="164" height="36" viewBox="0 0 164 36" fill="none" xmlns="http://www.w3.org/2000/svg">
<rect y="4" width="28" height="28" rx="14" fill="#42307D"/>
<path d="M16.2393 15.674C16.1882 15.1584 15.9688 14.7578 15.581 14.4723C15.1932 14.1868 14.6669 14.044 14.0021 14.044C13.5504 14.044 13.169 14.108 12.858 14.2358C12.5469 14.3594 12.3082 14.532 12.142 14.7536C11.9801 14.9751 11.8991 15.2266 11.8991 15.5078C11.8906 15.7422 11.9396 15.9467 12.0462 16.1214C12.157 16.2962 12.3082 16.4474 12.5 16.5753C12.6918 16.6989 12.9134 16.8075 13.1648 16.9013C13.4162 16.9908 13.6847 17.0675 13.9702 17.1314L15.1463 17.4126C15.7173 17.5405 16.2415 17.7109 16.7188 17.924C17.196 18.1371 17.6094 18.3991 17.9588 18.7102C18.3082 19.0213 18.5788 19.3878 18.7706 19.8097C18.9666 20.2315 19.0668 20.7152 19.071 21.2607C19.0668 22.0618 18.8622 22.7564 18.4574 23.3445C18.0568 23.9283 17.4773 24.3821 16.7188 24.706C15.9645 25.0256 15.0547 25.1854 13.9893 25.1854C12.9325 25.1854 12.0121 25.0234 11.228 24.6996C10.4482 24.3757 9.83878 23.8963 9.39986 23.2614C8.9652 22.6222 8.73722 21.8317 8.71591 20.8899H11.3942C11.424 21.3288 11.5497 21.6953 11.7713 21.9893C11.9972 22.2791 12.2976 22.4986 12.6726 22.6477C13.0518 22.7926 13.4801 22.8651 13.9574 22.8651C14.4261 22.8651 14.8331 22.7969 15.1783 22.6605C15.5277 22.5241 15.7983 22.3345 15.9901 22.0916C16.1818 21.8487 16.2777 21.5696 16.2777 21.2543C16.2777 20.9602 16.1903 20.7131 16.0156 20.5128C15.8452 20.3125 15.5938 20.142 15.2614 20.0014C14.9332 19.8608 14.5305 19.733 14.0533 19.6179L12.6278 19.2599C11.5241 18.9915 10.6527 18.5717 10.0135 18.0007C9.37429 17.4297 9.05682 16.6605 9.06108 15.6932C9.05682 14.9006 9.26776 14.2081 9.69389 13.6158C10.1243 13.0234 10.7145 12.5611 11.4645 12.2287C12.2145 11.8963 13.0668 11.7301 14.0213 11.7301C14.9929 11.7301 15.8409 11.8963 16.5653 12.2287C17.294 12.5611 17.8608 13.0234 18.2656 13.6158C18.6705 14.2081 18.8793 14.8942 18.892 15.674H16.2393Z" fill="white"/>
<path d="M44.2393 15.674C44.1882 15.1584 43.9688 14.7578 43.581 14.4723C43.1932 14.1868 42.6669 14.044 42.0021 14.044C41.5504 14.044 41.169 14.108 40.858 14.2358C40.5469 14.3594 40.3082 14.532 40.142 14.7536C39.9801 14.9751 39.8991 15.2266 39.8991 15.5078C39.8906 15.7422 39.9396 15.9467 40.0462 16.1214C40.157 16.2962 40.3082 16.4474 40.5 16.5753C40.6918 16.6989 40.9134 16.8075 41.1648 16.9013C41.4162 16.9908 41.6847 17.0675 41.9702 17.1314L43.1463 17.4126C43.7173 17.5405 44.2415 17.7109 44.7188 17.924C45.196 18.1371 45.6094 18.3991 45.9588 18.7102C46.3082 19.0213 46.5788 19.3878 46.7706 19.8097C46.9666 20.2315 47.0668 20.7152 47.071 21.2607C47.0668 22.0618 46.8622 22.7564 46.4574 23.3445C46.0568 23.9283 45.4773 24.3821 44.7188 24.706C43.9645 25.0256 43.0547 25.1854 41.9893 25.1854C40.9325 25.1854 40.0121 25.0234 39.228 24.6996C38.4482 24.3757 37.8388 23.8963 37.3999 23.2614C36.9652 22.6222 36.7372 21.8317 36.7159 20.8899H39.3942C39.424 21.3288 39.5497 21.6953 39.7713 21.9893C39.9972 22.2791 40.2976 22.4986 40.6726 22.6477C41.0518 22.7926 41.4801 22.8651 41.9574 22.8651C42.4261 22.8651 42.8331 22.7969 43.1783 22.6605C43.5277 22.5241 43.7983 22.3345 43.9901 22.0916C44.1818 21.8487 44.2777 21.5696 44.2777 21.2543C44.2777 20.9602 44.1903 20.7131 44.0156 20.5128C43.8452 20.3125 43.5938 20.142 43.2614 20.0014C42.9332 19.8608 42.5305 19.733 42.0533 19.6179L40.6278 19.2599C39.5241 18.9915 38.6527 18.5717 38.0135 18.0007C37.3743 17.4297 37.0568 16.6605 37.0611 15.6932C37.0568 14.9006 37.2678 14.2081 37.6939 13.6158C38.1243 13.0234 38.7145 12.5611 39.4645 12.2287C40.2145 11.8963 41.0668 11.7301 42.0213 11.7301C42.9929 11.7301 43.8409 11.8963 44.5653 12.2287C45.294 12.5611 45.8608 13.0234 46.2656 13.6158C46.6705 14.2081 46.8793 14.8942 46.892 15.674H44.2393ZM54.1039 15.1818V17.2273H48.1912V15.1818H54.1039ZM49.5336 12.8295H52.2566V21.983C52.2566 22.2344 52.2949 22.4304 52.3716 22.571C52.4483 22.7074 52.5549 22.8033 52.6912 22.8587C52.8319 22.9141 52.9938 22.9418 53.177 22.9418C53.3049 22.9418 53.4327 22.9311 53.5605 22.9098C53.6884 22.8842 53.7864 22.8651 53.8546 22.8523L54.2828 24.8786C54.1465 24.9212 53.9547 24.9702 53.7076 25.0256C53.4604 25.0852 53.16 25.1214 52.8063 25.1342C52.15 25.1598 51.5748 25.0724 51.0804 24.8722C50.5904 24.6719 50.209 24.3608 49.9363 23.9389C49.6635 23.517 49.5293 22.9844 49.5336 22.3409V12.8295ZM55.8777 25V15.1818H58.5176V16.8949H58.6199C58.7988 16.2855 59.0993 15.8253 59.5211 15.5142C59.943 15.1989 60.4288 15.0412 60.9785 15.0412C61.1149 15.0412 61.2619 15.0497 61.4196 15.0668C61.5772 15.0838 61.7157 15.1072 61.8351 15.1371V17.5533C61.7072 17.5149 61.5304 17.4808 61.3045 17.451C61.0787 17.4212 60.872 17.4062 60.6845 17.4062C60.2839 17.4062 59.926 17.4936 59.6106 17.6683C59.2995 17.8388 59.0524 18.0774 58.8691 18.3842C58.6902 18.6911 58.6007 19.0447 58.6007 19.4453V25H55.8777ZM67.2603 25.1918C66.2504 25.1918 65.381 24.9872 64.6523 24.5781C63.9279 24.1648 63.3697 23.581 62.9776 22.8267C62.5856 22.0682 62.3896 21.1712 62.3896 20.1357C62.3896 19.1257 62.5856 18.2393 62.9776 17.4766C63.3697 16.7138 63.9215 16.1193 64.6332 15.6932C65.3491 15.267 66.1886 15.054 67.1516 15.054C67.7994 15.054 68.4023 15.1584 68.9606 15.3672C69.5231 15.5717 70.0131 15.8807 70.4308 16.294C70.8526 16.7074 71.1808 17.2273 71.4151 17.8537C71.6495 18.4759 71.7667 19.2045 71.7667 20.0398V20.7876H63.4762V19.1001H69.2035C69.2035 18.7081 69.1183 18.3608 68.9478 18.0582C68.7773 17.7557 68.5408 17.5192 68.2383 17.3487C67.94 17.174 67.5927 17.0866 67.1964 17.0866C66.783 17.0866 66.4165 17.1825 66.0969 17.3743C65.7816 17.5618 65.5344 17.8153 65.3555 18.1349C65.1765 18.4503 65.0849 18.8018 65.0806 19.1896V20.794C65.0806 21.2798 65.1701 21.6996 65.3491 22.0533C65.5323 22.407 65.7901 22.6797 66.1225 22.8714C66.4549 23.0632 66.8491 23.1591 67.305 23.1591C67.6076 23.1591 67.8846 23.1165 68.136 23.0312C68.3874 22.946 68.6026 22.8182 68.7816 22.6477C68.9606 22.4773 69.0969 22.2685 69.1907 22.0213L71.7092 22.1875C71.5813 22.7926 71.3192 23.321 70.9229 23.7727C70.5309 24.2202 70.0238 24.5696 69.4016 24.821C68.7837 25.0682 68.07 25.1918 67.2603 25.1918ZM76.3434 25.1854C75.717 25.1854 75.1587 25.0767 74.6687 24.8594C74.1786 24.6378 73.7908 24.3118 73.5053 23.8814C73.2241 23.4467 73.0835 22.9055 73.0835 22.2578C73.0835 21.7124 73.1836 21.2543 73.3839 20.8835C73.5842 20.5128 73.8569 20.2145 74.2021 19.9886C74.5472 19.7628 74.9393 19.5923 75.3782 19.4773C75.8214 19.3622 76.2859 19.2812 76.7717 19.2344C77.3427 19.1747 77.8029 19.1193 78.1523 19.0682C78.5018 19.0128 78.7553 18.9318 78.913 18.8253C79.0707 18.7187 79.1495 18.5611 79.1495 18.3523V18.3139C79.1495 17.9091 79.0217 17.5959 78.766 17.3743C78.5146 17.1527 78.1566 17.0419 77.6921 17.0419C77.2021 17.0419 76.8121 17.1506 76.5224 17.3679C76.2326 17.581 76.0408 17.8494 75.9471 18.1733L73.4286 17.9688C73.5565 17.3722 73.8079 16.8565 74.1829 16.4219C74.5579 15.983 75.0415 15.6463 75.6339 15.4119C76.2305 15.1733 76.9208 15.054 77.7049 15.054C78.2504 15.054 78.7724 15.1179 79.271 15.2457C79.7738 15.3736 80.2191 15.5717 80.6069 15.8402C80.9989 16.1087 81.3079 16.4538 81.5337 16.8757C81.7596 17.2933 81.8725 17.794 81.8725 18.3778V25H79.2901V23.6385H79.2134C79.0558 23.9453 78.8448 24.2159 78.5806 24.4503C78.3164 24.6804 77.9989 24.8615 77.6282 24.9936C77.2575 25.1214 76.8292 25.1854 76.3434 25.1854ZM77.1232 23.3061C77.5238 23.3061 77.8775 23.2273 78.1843 23.0696C78.4911 22.9077 78.7319 22.6903 78.9066 22.4176C79.0813 22.1449 79.1687 21.8359 79.1687 21.4908V20.4489C79.0835 20.5043 78.9663 20.5554 78.8171 20.6023C78.6722 20.6449 78.5082 20.6854 78.3249 20.7237C78.1417 20.7578 77.9585 20.7898 77.7752 20.8196C77.592 20.8452 77.4258 20.8686 77.2766 20.8899C76.957 20.9368 76.6779 21.0114 76.4393 21.1136C76.2006 21.2159 76.0153 21.3544 75.8832 21.5291C75.7511 21.6996 75.685 21.9126 75.685 22.1683C75.685 22.5391 75.8192 22.8224 76.0877 23.0185C76.3604 23.2102 76.7056 23.3061 77.1232 23.3061ZM83.9851 25V15.1818H86.5803V16.9141H86.6953C86.8999 16.3388 87.2408 15.8849 87.718 15.5526C88.1953 15.2202 88.7663 15.054 89.4311 15.054C90.1044 15.054 90.6776 15.2223 91.1506 15.5589C91.6236 15.8913 91.9389 16.343 92.0966 16.9141H92.1989C92.3991 16.3516 92.7614 15.902 93.2855 15.5653C93.8139 15.2244 94.4382 15.054 95.1584 15.054C96.0746 15.054 96.8182 15.3459 97.3892 15.9297C97.9645 16.5092 98.2521 17.3317 98.2521 18.397V25H95.5355V18.9339C95.5355 18.3885 95.3906 17.9794 95.1009 17.7067C94.8111 17.4339 94.4489 17.2976 94.0142 17.2976C93.5199 17.2976 93.1342 17.4553 92.8572 17.7706C92.5803 18.0817 92.4418 18.4929 92.4418 19.0043V25H89.8018V18.8764C89.8018 18.3949 89.6634 18.0114 89.3864 17.7259C89.1136 17.4403 88.7536 17.2976 88.3061 17.2976C88.0036 17.2976 87.7308 17.3743 87.4879 17.5277C87.2493 17.6768 87.0597 17.8878 86.919 18.1605C86.7784 18.429 86.7081 18.7443 86.7081 19.1065V25H83.9851ZM100.403 25V15.1818H103.126V25H100.403ZM101.771 13.9162C101.366 13.9162 101.019 13.782 100.729 13.5135C100.444 13.2408 100.301 12.9148 100.301 12.5355C100.301 12.1605 100.444 11.8388 100.729 11.5703C101.019 11.2976 101.366 11.1612 101.771 11.1612C102.176 11.1612 102.521 11.2976 102.806 11.5703C103.096 11.8388 103.241 12.1605 103.241 12.5355C103.241 12.9148 103.096 13.2408 102.806 13.5135C102.521 13.782 102.176 13.9162 101.771 13.9162ZM108.03 19.3239V25H105.307V15.1818H107.903V16.9141H108.018C108.235 16.343 108.599 15.8913 109.111 15.5589C109.622 15.2223 110.242 15.054 110.971 15.054C111.653 15.054 112.247 15.2031 112.754 15.5014C113.261 15.7997 113.655 16.2259 113.937 16.7798C114.218 17.3295 114.358 17.9858 114.358 18.7486V25H111.635V19.2344C111.64 18.6335 111.486 18.1648 111.175 17.8281C110.864 17.4872 110.436 17.3168 109.89 17.3168C109.524 17.3168 109.2 17.3956 108.919 17.5533C108.642 17.7109 108.425 17.9411 108.267 18.2436C108.113 18.5419 108.035 18.902 108.03 19.3239ZM120.928 28.8864C120.046 28.8864 119.289 28.7649 118.659 28.522C118.032 28.2834 117.534 27.9574 117.163 27.544C116.792 27.1307 116.551 26.6662 116.441 26.1506L118.959 25.8118C119.036 26.0078 119.157 26.1911 119.324 26.3615C119.49 26.532 119.709 26.6683 119.982 26.7706C120.259 26.8771 120.596 26.9304 120.992 26.9304C121.584 26.9304 122.072 26.7855 122.456 26.4957C122.843 26.2102 123.037 25.7308 123.037 25.0575V23.2614H122.922C122.803 23.5341 122.624 23.7919 122.385 24.0348C122.147 24.2777 121.84 24.4759 121.465 24.6293C121.09 24.7827 120.642 24.8594 120.123 24.8594C119.385 24.8594 118.714 24.6889 118.109 24.348C117.508 24.0028 117.029 23.4766 116.671 22.7692C116.317 22.0575 116.14 21.1584 116.14 20.0717C116.14 18.9595 116.321 18.0305 116.684 17.2848C117.046 16.5391 117.527 15.9808 118.128 15.6101C118.733 15.2393 119.396 15.054 120.116 15.054C120.666 15.054 121.126 15.1477 121.497 15.3352C121.868 15.5185 122.166 15.7486 122.392 16.0256C122.622 16.2983 122.799 16.5668 122.922 16.831H123.025V15.1818H125.728V25.0959C125.728 25.9311 125.524 26.63 125.115 27.1925C124.706 27.755 124.139 28.1768 123.414 28.4581C122.694 28.7436 121.865 28.8864 120.928 28.8864ZM120.985 22.8139C121.424 22.8139 121.795 22.7053 122.098 22.4879C122.404 22.2663 122.639 21.951 122.801 21.5419C122.967 21.1286 123.05 20.6342 123.05 20.0589C123.05 19.4837 122.969 18.9851 122.807 18.5632C122.645 18.1371 122.411 17.8068 122.104 17.5724C121.797 17.3381 121.424 17.2209 120.985 17.2209C120.538 17.2209 120.161 17.3423 119.854 17.5852C119.547 17.8239 119.315 18.1562 119.157 18.5824C119 19.0085 118.921 19.5007 118.921 20.0589C118.921 20.6257 119 21.1158 119.157 21.5291C119.319 21.9382 119.551 22.2557 119.854 22.4815C120.161 22.7031 120.538 22.8139 120.985 22.8139ZM130.203 25H127.237L131.756 11.9091H135.323L139.836 25H136.87L133.591 14.9006H133.488L130.203 25ZM130.017 19.8544H137.023V22.0149H130.017V19.8544ZM141.36 28.6818V15.1818H144.045V16.831H144.166C144.286 16.5668 144.458 16.2983 144.684 16.0256C144.914 15.7486 145.212 15.5185 145.579 15.3352C145.95 15.1477 146.41 15.054 146.96 15.054C147.675 15.054 148.336 15.2415 148.941 15.6165C149.546 15.9872 150.03 16.5476 150.392 17.2976C150.754 18.0433 150.935 18.9787 150.935 20.1037C150.935 21.1989 150.759 22.1236 150.405 22.8778C150.055 23.6278 149.578 24.1967 148.973 24.5845C148.372 24.968 147.699 25.1598 146.953 25.1598C146.425 25.1598 145.975 25.0724 145.604 24.8977C145.238 24.723 144.938 24.5036 144.703 24.2393C144.469 23.9709 144.29 23.7003 144.166 23.4276H144.083V28.6818H141.36ZM144.026 20.0909C144.026 20.6747 144.107 21.1839 144.268 21.6186C144.43 22.0533 144.665 22.392 144.972 22.6349C145.278 22.8736 145.651 22.9929 146.09 22.9929C146.533 22.9929 146.908 22.8714 147.215 22.6286C147.522 22.3814 147.754 22.0405 147.912 21.6058C148.074 21.1669 148.155 20.6619 148.155 20.0909C148.155 19.5241 148.076 19.0256 147.918 18.5952C147.761 18.1648 147.528 17.8281 147.222 17.5852C146.915 17.3423 146.538 17.2209 146.09 17.2209C145.647 17.2209 145.272 17.3381 144.965 17.5724C144.663 17.8068 144.43 18.1392 144.268 18.5696C144.107 19 144.026 19.5071 144.026 20.0909ZM152.751 28.6818V15.1818H155.435V16.831H155.557C155.676 16.5668 155.849 16.2983 156.075 16.0256C156.305 15.7486 156.603 15.5185 156.969 15.3352C157.34 15.1477 157.8 15.054 158.35 15.054C159.066 15.054 159.727 15.2415 160.332 15.6165C160.937 15.9872 161.42 16.5476 161.783 17.2976C162.145 18.0433 162.326 18.9787 162.326 20.1037C162.326 21.1989 162.149 22.1236 161.795 22.8778C161.446 23.6278 160.969 24.1967 160.364 24.5845C159.763 24.968 159.089 25.1598 158.344 25.1598C157.815 25.1598 157.366 25.0724 156.995 24.8977C156.629 24.723 156.328 24.5036 156.094 24.2393C155.859 23.9709 155.68 23.7003 155.557 23.4276H155.474V28.6818H152.751ZM155.416 20.0909C155.416 20.6747 155.497 21.1839 155.659 21.6186C155.821 22.0533 156.055 22.392 156.362 22.6349C156.669 22.8736 157.042 22.9929 157.481 22.9929C157.924 22.9929 158.299 22.8714 158.606 22.6286C158.913 22.3814 159.145 22.0405 159.303 21.6058C159.464 21.1669 159.545 20.6619 159.545 20.0909C159.545 19.5241 159.467 19.0256 159.309 18.5952C159.151 18.1648 158.919 17.8281 158.612 17.5852C158.305 17.3423 157.928 17.2209 157.481 17.2209C157.038 17.2209 156.663 17.3381 156.356 17.5724C156.053 17.8068 155.821 18.1392 155.659 18.5696C155.497 19 155.416 19.5071 155.416 20.0909Z" fill="#42307D"/>
</svg>
